<?xml version="1.0" encoding="utf-8"?>
<!-- Generator: Adobe Illustrator 20.0.0, SVG Export Plug-In . SVG Version: 6.00 Build 0)  -->
<svg version="1.1" id="Layer_1" xmlns="http://www.w3.org/2000/svg" xmlns:xlink="http://www.w3.org/1999/xlink" x="0px" y="0px"
	 width="152.3px" height="61.7px" viewBox="0 0 152.3 61.7" style="enable-background:new 0 0 152.3 61.7;" xml:space="preserve">
<style type="text/css">
	.st0{fill:#026AC2;}
</style>
<g>
	<g>
		<g>
			<path class="st0" d="M44.7,49.4c-2.2,0-4,1.8-4,4c0,2.2,1.8,4,4,4c2.2,0,4-1.8,4-4C48.8,51.2,47,49.4,44.7,49.4z"/>
		</g>
		<g>
			<path class="st0" d="M21,49.4c-2.2,0-4,1.8-4,4c0,2.2,1.8,4,4,4c2.2,0,4-1.8,4-4C25,51.2,23.2,49.4,21,49.4z"/>
		</g>
		<g>
			<g>
				<path class="st0" d="M52.8,11.9L52.8,11.9l-36.1,0l-1.5-7.5C14.9,2.5,13.5,1,11.8,1L4.4,1C2.5,1,1,2.7,1,4.9C1,7.2,2.5,9,4.4,9
					l3.7,0l4.7,23.5l2,10.4c0,0,0,0,0,0.1l0.1,0.3h0c0.4,1.7,1.6,2.9,3,2.9l28.8,0c4.8,0,5.4-8.2,5.4-8.2l-30.4,0l-0.9-4.8l29.6-0.1
					c1.4,0,2.6-1.2,3-2.7h0l0,0c0,0,0-0.1,0-0.1l3.1-13.2c0-0.1,0.1-0.3,0.1-0.4l0,0l0,0c0-0.2,0.1-0.5,0.1-0.7
					C56.8,13.7,55,11.9,52.8,11.9z M46.9,25.1l-27.6,0.1l-1-5.2H48L46.9,25.1z"/>
			</g>
		</g>
		<g>
			<path class="st0" d="M149.8,19v-1.9v-0.6V16c0-2.3-1.8-4.1-4.1-4.1c-0.7,0-1.3,0.2-1.8,0.4l0,0l0,0c-0.2,0.1-0.4,0.2-0.5,0.3
				l-12.7,7.7l-0.3-0.2l-12.6-7.6c0,0,0,0,0,0c-0.1,0-0.1-0.1-0.2-0.1c-0.1,0-0.1-0.1-0.2-0.1c-0.1,0-0.1-0.1-0.2-0.1
				c-0.1,0-0.1-0.1-0.2-0.1c-0.1,0-0.1,0-0.2-0.1c-0.1,0-0.1,0-0.2-0.1c-0.1,0-0.1,0-0.2,0c-0.1,0-0.1,0-0.2,0c-0.1,0-0.1,0-0.2,0
				c-0.1,0-0.1,0-0.2,0c-0.3,0-0.5,0-0.8,0c-0.1,0-0.1,0-0.2,0c-0.1,0-0.1,0-0.2,0s-0.1,0-0.2,0.1c-0.1,0-0.1,0-0.2,0
				c-0.1,0-0.1,0-0.2,0.1c-0.1,0-0.1,0-0.2,0.1c-0.1,0-0.1,0.1-0.2,0.1c-0.1,0-0.1,0-0.2,0.1c-0.1,0-0.1,0.1-0.2,0.1
				c0,0-0.1,0.1-0.1,0.1c-0.1,0.1-0.2,0.1-0.3,0.2c0,0,0,0-0.1,0c-0.2,0.2-0.4,0.4-0.6,0.6c0,0,0,0,0,0c-0.1,0.1-0.1,0.2-0.2,0.3
				c0,0,0,0.1-0.1,0.1c-0.1,0.1-0.1,0.2-0.1,0.2c0,0,0,0.1-0.1,0.1c0,0.1-0.1,0.2-0.1,0.3c0,0,0,0.1,0,0.1c0,0.1-0.1,0.2-0.1,0.3
				c0,0,0,0.1,0,0.1c0,0.1-0.1,0.2-0.1,0.3c0,0,0,0.1,0,0.1c0,0.1,0,0.2,0,0.3c0,0,0,0.1,0,0.1c0,0.1,0,0.2,0,0.3v0.5v0.6v24v1.1
				v0.1h0c0,2.2,1.8,4,4.1,4c2.2,0,4-1.8,4.1-4h0v-0.1v-1.1v-7.4v-8.2v-1.6l8.9,5.2l0,0c0.6,0.4,1.3,0.6,2.1,0.6
				c0.8,0,1.5-0.2,2.1-0.6l0,0l8.9-5.2v17.2v1.1v0.1h0c0,2.2,1.8,4,4.1,4c2.2,0,4-1.8,4.1-4h0v-0.1v-1.1v-7.4v-8.2L149.8,19
				L149.8,19L149.8,19z"/>
		</g>
		<g>
			<path class="st0" d="M102.1,39.3L102.1,39.3L102.1,39.3c-0.2-0.1-0.3-0.2-0.4-0.3L86.7,26.7l14.1-7.1c0.2-0.1,0.4-0.2,0.5-0.3
				l0,0l0,0c1.1-0.7,1.9-2,1.9-3.4c0-2.2-1.8-4-4-4c-0.7,0-1.4,0.2-2,0.5l0,0L73.1,24.7v-7.6v-0.6V16c0-2.3-1.8-4.1-4.1-4.1
				s-4.1,1.8-4.1,4.1v0.5v0.6v24v1.1v0.1h0c0,2.2,1.8,4,4.1,4c2.2,0,4-1.8,4.1-4h0v-0.1v-1.1v-7.4l6.5-3.3L96.4,45
				c0.2,0.2,0.4,0.3,0.6,0.5l0,0l0,0c0.7,0.5,1.5,0.7,2.3,0.7c2.2,0,4-1.8,4-4C103.3,41.1,102.9,40.1,102.1,39.3z"/>
		</g>
	</g>
</g>
</svg>
